# xmcd
#
# Track frame offsets: 
#        150
#        21416
#        37945
#        60964
#        83089
#        98079
#        119962
#        144295
#        164340
#        182924
#        198932
#        219689
#
# Disc length: 3160 seconds
#
# Revision: 0
# Processed by: cddbd v1.5.2PL0 Copyright (c) Steve Scherf et al.
# Submitted via: ExactAudioCopy v1.0b4
#
DISCID=a40c560c
DTITLE=Darius Jackson - Darius Jackson
DYEAR=2016
DGENRE=Blues
TTITLE0=Gotta Love Somebody
TTITLE1=El Paso Heat
TTITLE2=I’m a King Bee
TTITLE3=Give It to Me
TTITLE4=Next Time You See Me
TTITLE5=Write Me Down
TTITLE6=Come Back to Me
TTITLE7=Who’s Got the Girl Right Now
TTITLE8=Gonna Make You Mine
TTITLE9=Why Young Girls Go Wild
TTITLE10=Let Me Take You Home
TTITLE11=281915
EXTD=
EXTT0=
EXTT1=
EXTT2=
EXTT3=
EXTT4=
EXTT5=
EXTT6=
EXTT7=
EXTT8=
EXTT9=
EXTT10=
EXTT11=
PLAYORDER=
